<?xml version="1.0" encoding="UTF-8" standalone="no"?>
<svg
   xmlns:dc="http://purl.org/dc/elements/1.1/"
   xmlns:cc="http://creativecommons.org/ns#"
   xmlns:rdf="http://www.w3.org/1999/02/22-rdf-syntax-ns#"
   xmlns:svg="http://www.w3.org/2000/svg"
   xmlns="http://www.w3.org/2000/svg"
   xmlns:sodipodi="http://sodipodi.sourceforge.net/DTD/sodipodi-0.dtd"
   xmlns:inkscape="http://www.inkscape.org/namespaces/inkscape"
   width="1024"
   height="1024"
   viewBox="0 0 1024 1024"
   fill="none"
   version="1.1"
   id="svg3841"
   sodipodi:docname="github.svg"
   inkscape:version="0.92.4 (5da689c313, 2019-01-14)">
  <metadata
     id="metadata3847">
    <rdf:RDF>
      <cc:Work
         rdf:about="">
        <dc:format>image/svg+xml</dc:format>
        <dc:type
           rdf:resource="http://purl.org/dc/dcmitype/StillImage" />
        <dc:title></dc:title>
      </cc:Work>
    </rdf:RDF>
  </metadata>
  <defs
     id="defs3845" />
  <sodipodi:namedview
     pagecolor="#ffffff"
     bordercolor="#ff6666"
     borderopacity="1"
     objecttolerance="10"
     gridtolerance="10"
     guidetolerance="10"
     inkscape:pageopacity="0"
     inkscape:pageshadow="2"
     inkscape:window-width="1920"
     inkscape:window-height="1017"
     id="namedview3843"
     showgrid="false"
     inkscape:pagecheckerboard="true"
     showborder="true"
     inkscape:zoom="0.65186406"
     inkscape:cx="512"
     inkscape:cy="491.8014"
     inkscape:window-x="1072"
     inkscape:window-y="410"
     inkscape:window-maximized="1"
     inkscape:current-layer="svg3841" />
  <path
     d="M8 0C3.58 0 0 3.58 0 8C0 11.54 2.29 14.53 5.47 15.59C5.87 15.66 6.02 15.42 6.02 15.21C6.02 15.02 6.01 14.39 6.01 13.72C4 14.09 3.48 13.23 3.32 12.78C3.23 12.55 2.84 11.84 2.5 11.65C2.22 11.5 1.82 11.13 2.49 11.12C3.12 11.11 3.57 11.7 3.72 11.94C4.44 13.15 5.59 12.81 6.05 12.6C6.12 12.08 6.33 11.73 6.56 11.53C4.78 11.33 2.92 10.64 2.92 7.58C2.92 6.71 3.23 5.99 3.74 5.43C3.66 5.23 3.38 4.41 3.82 3.31C3.82 3.31 4.49 3.1 6.02 4.13C6.66 3.95 7.34 3.86 8.02 3.86C8.7 3.86 9.38 3.95 10.02 4.13C11.55 3.09 12.22 3.31 12.22 3.31C12.66 4.41 12.38 5.23 12.3 5.43C12.81 5.99 13.12 6.7 13.12 7.58C13.12 10.65 11.25 11.33 9.47 11.53C9.76 11.78 10.01 12.26 10.01 13.01C10.01 14.08 10 14.94 10 15.21C10 15.42 10.15 15.67 10.55 15.59C13.71 14.53 16 11.53 16 8C16 3.58 12.42 0 8 0Z"
     transform="scale(64)"
     id="path3839"
     clip-rule="evenodd"
     fill-rule="evenodd"
     fill="#1B1F23" />
  <path
     style="fill:#ffffff;fill-opacity:1;stroke-width:1.534;stroke:#ffffff;stroke-opacity:0;stroke-miterlimit:4;stroke-dasharray:none"
     d="M 334.04879,991.28404 C 262.66911,964.16205 204.13052,926.38776 150.67655,872.95603 104.57934,826.87798 69.206276,775.45265 43.876322,717.6899 -6.6448795,602.48072 -12.804418,471.11264 26.698696,351.33267 97.318588,137.20148 301.55138,-5.8133242 526.57359,1.2933662 542.60454,1.7996584 561.93372,2.9378799 569.52733,3.8227473 796.34978,30.253894 977.98831,202.17527 1015.9368,426.35053 c 5.7987,34.25534 7.4215,59.08102 6.4278,98.33117 -0.9446,37.31212 -3.2035,58.45732 -9.5869,89.74263 -34.97555,171.41642 -157.18916,314.80706 -320.85823,376.45617 -20.83422,7.84761 -28.25708,8.63797 -38.3005,4.07811 -12.40915,-5.63394 -11.88169,-1.40336 -12.82531,-102.86902 -0.80297,-86.34262 -0.96247,-90.2076 -4.20971,-102.01514 -4.37324,-15.9019 -13.8643,-35.10624 -21.81265,-44.13604 -7.33284,-8.33056 -9.11452,-7.18897 17.38777,-11.14094 121.84412,-18.16914 187.86411,-80.77803 204.57828,-194.00812 3.77993,-25.60715 3.77961,-78.95011 -6e-4,-96.64592 -7.5314,-35.25588 -24.69717,-70.71509 -44.25433,-91.41585 l -4.47942,-4.74136 3.91117,-13.49662 c 5.1627,-17.8154 7.19701,-41.73896 5.28089,-62.10331 -1.8049,-19.18225 -3.05213,-25.29479 -9.30081,-45.58267 l -4.80808,-15.61064 -7.24797,-0.99685 c -8.86061,-1.21865 -31.4068,2.46763 -46.89743,7.66766 -22.34897,7.5023 -46.48057,19.508 -74.70026,37.16411 l -13.46681,8.42571 -16.4474,-4.00163 c -37.99203,-9.2434 -65.50545,-12.29721 -110.79224,-12.29721 -45.41904,0 -73.57968,3.1087 -111.99125,12.36285 l -16.11234,3.88182 -14.5689,-9.1412 c -39.86056,-25.01036 -73.36999,-38.9983 -103.44502,-43.18135 -6.50622,-0.90492 -14.5359,-1.21255 -17.84373,-0.6836 l -6.01426,0.96171 -4.49494,14.0323 c -8.08411,25.2369 -10.03711,37.8087 -9.91371,63.81585 0.11106,23.41611 1.91983,36.38196 7.16232,51.34348 l 2.13345,6.08865 -9.53219,12.49308 c -23.15995,30.35387 -35.92322,60.74305 -40.75955,97.04796 -2.66,19.96782 -0.94184,70.04829 3.21413,93.68418 6.30297,35.84642 17.65339,66.25216 34.3897,92.12384 8.65153,13.3739 30.16772,35.95262 43.75278,45.91341 32.56714,23.8788 77.9867,40.76499 128.20182,47.66319 21.23656,2.91734 20.15037,2.16961 14.07315,9.68782 -11.49416,14.21956 -20.62493,33.9095 -23.27676,50.19491 -0.61826,3.7968 -1.70429,8.00998 -2.41343,9.36263 -1.54845,2.9536 -21.16079,9.65635 -35.61404,12.17152 -5.72748,0.9967 -17.80822,1.51961 -26.84608,1.16204 -20.01373,-0.79184 -34.31131,-5.36554 -49.75099,-15.91499 -13.02606,-8.90032 -22.15382,-18.85745 -35.35489,-38.56732 -17.78844,-26.55908 -39.89951,-44.53774 -61.78565,-50.23836 -16.98295,-4.42348 -35.44783,-2.33661 -39.93623,4.51356 -2.12065,3.23652 -2.13361,4.125 -0.11637,7.97771 2.98158,5.69452 10.51788,12.64015 20.94056,19.29933 18.76011,11.98606 35.29616,34.30428 53.90187,72.74975 10.57541,21.85229 13.2089,26.0157 22.04455,34.85135 16.28766,16.28766 38.96516,26.14295 69.61647,30.25422 15.10648,2.02625 50.95201,0.86251 69.64649,-2.2611 l 11.94612,-1.99604 -0.44066,51.78567 c -0.42162,49.54667 -0.57742,51.96873 -3.60359,56.01953 -5.65837,7.57427 -10.77779,10.32702 -20.21091,10.86753 -7.4561,0.42724 -11.6058,-0.54373 -26.48319,-6.19666 z"
     id="path3881"
     inkscape:connector-curvature="0" />
</svg>
